<?xml version="1.0" encoding="UTF-8"?>
<svg xmlns="http://www.w3.org/2000/svg" xmlns:xlink="http://www.w3.org/1999/xlink" width="300.18pt" height="277.28pt" viewBox="0 0 300.18 277.28" version="1.1">
<defs>
<clipPath id="clip1">
  <path d="M 149 0 L 300.179688 0 L 300.179688 137 L 149 137 Z M 149 0 "/>
</clipPath>
<clipPath id="clip2">
  <path d="M 0 144 L 145 144 L 145 277.28125 L 0 277.28125 Z M 0 144 "/>
</clipPath>
<clipPath id="clip3">
  <path d="M 149 149 L 290 149 L 290 277.28125 L 149 277.28125 Z M 149 149 "/>
</clipPath>
</defs>
<g id="surface1">
<path style=" stroke:none;fill-rule:nonzero;fill:rgb(13.299561%,11.799622%,12.199402%);fill-opacity:1;" d="M 0 0.00390625 L 35.785156 0.00390625 L 35.785156 72.839844 C 35.785156 84.394531 36.230469 91.886719 37.117188 95.3125 C 38.648438 100.816406 42.292969 105.234375 48.058594 108.566406 C 53.820313 111.898438 61.699219 113.566406 71.691406 113.566406 C 81.847656 113.566406 89.503906 111.988281 94.664063 108.84375 C 99.824219 105.691406 102.925781 101.824219 103.972656 97.238281 C 105.019531 92.652344 105.542969 85.035156 105.542969 74.394531 L 105.542969 0.00390625 L 141.328125 0.00390625 L 141.328125 70.636719 C 141.328125 86.78125 140.363281 98.1875 138.425781 104.851563 C 136.492188 111.515625 132.929688 117.140625 127.730469 121.730469 C 122.53125 126.316406 115.578125 129.972656 106.875 132.691406 C 98.167969 135.414063 86.804688 136.773438 72.78125 136.773438 C 55.855469 136.773438 43.019531 135.289063 34.273438 132.324219 C 25.53125 129.359375 18.617188 125.507813 13.539063 120.765625 C 8.464844 116.027344 5.117188 111.058594 3.507813 105.859375 C 1.167969 98.15625 0 86.78125 0 71.738281 "/>
<g clip-path="url(#clip1)" clip-rule="nonzero">
<path style=" stroke:none;fill-rule:nonzero;fill:rgb(13.299561%,11.799622%,12.199402%);fill-opacity:1;" d="M 183.570313 58.414063 L 208.554688 58.414063 C 224.757813 58.414063 234.871094 57.859375 238.90625 56.75 C 242.9375 55.636719 246.09375 53.722656 248.375 51.007813 C 250.65625 48.289063 251.796875 44.894531 251.796875 40.816406 C 251.796875 36.246094 250.296875 32.558594 247.292969 29.75 C 244.289063 26.941406 240.046875 25.164063 234.570313 24.421875 C 231.832031 24.113281 223.617188 23.960938 209.925781 23.960938 L 183.570313 23.960938 Z M 149.796875 136.773438 L 149.796875 0.988281 L 220.878906 0.988281 C 238.753906 0.988281 251.742188 2.210938 259.84375 4.648438 C 267.941406 7.089844 274.429688 11.425781 279.296875 17.664063 C 284.164063 23.898438 286.597656 31.03125 286.597656 39.058594 C 286.597656 49.246094 282.910156 57.660156 275.527344 64.296875 C 268.152344 70.933594 257.125 75.117188 242.441406 76.847656 C 249.746094 80.304688 255.773438 84.105469 260.527344 88.238281 C 265.28125 92.375 271.6875 99.726563 279.753906 110.28125 L 300.175781 136.773438 L 259.785156 136.773438 L 235.367188 107.226563 C 226.695313 96.667969 220.765625 90.015625 217.570313 87.265625 C 214.371094 84.519531 210.992188 82.636719 207.414063 81.617188 C 203.839844 80.597656 198.171875 80.089844 190.414063 80.089844 L 183.570313 80.089844 L 183.570313 136.773438 "/>
</g>
<g clip-path="url(#clip2)" clip-rule="nonzero">
<path style=" stroke:none;fill-rule:nonzero;fill:rgb(13.299561%,11.799622%,12.199402%);fill-opacity:1;" d="M 34.945313 219.203125 L 34.945313 254.828125 L 67.292969 254.828125 C 79.886719 254.828125 87.875 254.558594 91.257813 254.015625 C 96.453125 253.285156 100.683594 251.511719 103.949219 248.695313 C 107.21875 245.875 108.851563 242.105469 108.851563 237.382813 C 108.851563 233.382813 107.589844 229.988281 105.070313 227.199219 C 102.554688 224.414063 98.914063 222.382813 94.152344 221.109375 C 89.390625 219.839844 79.058594 219.203125 63.160156 219.203125 Z M 34.945313 166.210938 L 34.945313 197.027344 L 57.847656 197.027344 C 71.464844 197.027344 79.925781 196.875 83.230469 196.574219 C 89.210938 196.027344 93.914063 194.433594 97.339844 191.796875 C 100.765625 189.164063 102.472656 185.695313 102.472656 181.390625 C 102.472656 177.273438 101 173.925781 98.046875 171.351563 C 95.09375 168.773438 90.707031 167.210938 84.886719 166.667969 C 81.421875 166.367188 71.464844 166.210938 55.015625 166.210938 Z M 0 144.035156 L 69.183594 144.035156 C 82.878906 144.035156 93.089844 144.476563 99.816406 145.355469 C 106.546875 146.234375 112.570313 148.066406 117.882813 150.855469 C 123.191406 153.640625 127.621094 157.351563 131.164063 161.988281 C 134.703125 166.621094 136.476563 171.816406 136.476563 177.574219 C 136.476563 183.816406 134.289063 189.539063 129.921875 194.753906 C 125.554688 199.964844 119.632813 203.871094 112.15625 206.476563 C 122.703125 208.839844 130.808594 212.867188 136.476563 218.566406 C 142.144531 224.261719 144.976563 230.957031 144.976563 238.652344 C 144.976563 244.710938 143.144531 250.605469 139.484375 256.328125 C 135.828125 262.054688 130.828125 266.632813 124.492188 270.054688 C 118.15625 273.480469 110.34375 275.585938 101.058594 276.371094 C 95.234375 276.855469 81.183594 277.160156 58.910156 277.28125 L 0 277.28125 "/>
</g>
<g clip-path="url(#clip3)" clip-rule="nonzero">
<path style=" stroke:none;fill-rule:nonzero;fill:rgb(13.299561%,11.799622%,12.199402%);fill-opacity:1;" d="M 149.796875 277.28125 L 149.796875 149.027344 L 184.367188 149.027344 L 256.386719 234.675781 L 256.386719 149.027344 L 289.394531 149.027344 L 289.394531 277.28125 L 253.742188 277.28125 L 182.804688 193.644531 L 182.804688 277.28125 "/>
</g>
</g>
</svg>
